HIERARCHY
ROOT Hips
{
	OFFSET -0.001795 -0.223333 0.028219
	CHANNELS 6 Xposition Yposition Zposition Zrotation Yrotation Xrotation 
	JOINT LeftUpLeg
	{
		OFFSET 0.069520 -0.091406 -0.006815
		CHANNELS 3 Zrotation Yrotation Xrotation
		JOINT LeftLeg
		{
			OFFSET 0.034277 -0.375199 -0.004496
			CHANNELS 3 Zrotation Yrotation Xrotation
			JOINT LeftFoot
			{
				OFFSET -0.013596 -0.397961 -0.043693
				CHANNELS 3 Zrotation Yrotation Xrotation
				JOINT LeftToe
				{
					OFFSET 0.026358 -0.055791 0.119288
					CHANNELS 3 Zrotation Yrotation Xrotation
					End Site
					{
						OFFSET 0.000000 0.000000 0.000000
					}
				}
			}
		}
	}
	JOINT RightUpLeg
	{
		OFFSET -0.067670 -0.090522 -0.004320
		CHANNELS 3 Zrotation Yrotation Xrotation
		JOINT RightLeg
		{
			OFFSET -0.038290 -0.382569 -0.008850
			CHANNELS 3 Zrotation Yrotation Xrotation
			JOINT RightFoot
			{
				OFFSET 0.015774 -0.398415 -0.042312
				CHANNELS 3 Zrotation Yrotation Xrotation
				JOINT RightToe
				{
					OFFSET -0.025372 -0.048144 0.123348
					CHANNELS 3 Zrotation Yrotation Xrotation
					End Site
					{
						OFFSET 0.000000 0.000000 0.000000
					}
				}
			}
		}
	}
	JOINT Spine
	{
		OFFSET -0.002533 0.108963 -0.026696
		CHANNELS 3 Zrotation Yrotation Xrotation
		JOINT Spine1
		{
			OFFSET 0.005487 0.135180 0.001092
			CHANNELS 3 Zrotation Yrotation Xrotation
			JOINT Spine2
			{
				OFFSET 0.001457 0.052922 0.025425
				CHANNELS 3 Zrotation Yrotation Xrotation
				JOINT Neck
				{
					OFFSET -0.002778 0.213870 -0.042857
					CHANNELS 3 Zrotation Yrotation Xrotation
					JOINT Head
					{
						OFFSET 0.005152 0.064970 0.051349
						CHANNELS 3 Zrotation Yrotation Xrotation
						End Site
						{
							OFFSET 0.000000 0.000000 0.000000
						}
					}
				}
				JOINT LeftShoulder
				{
					OFFSET 0.078845 0.121749 -0.034090
					CHANNELS 3 Zrotation Yrotation Xrotation
					JOINT LeftArm
					{
						OFFSET 0.090977 0.030469 -0.008868
						CHANNELS 3 Zrotation Yrotation Xrotation
						JOINT LeftForeArm
						{
							OFFSET 0.259612 -0.012772 -0.027456
							CHANNELS 3 Zrotation Yrotation Xrotation
							JOINT LeftHand
							{
								OFFSET 0.249234 0.008986 -0.001171
								CHANNELS 3 Zrotation Yrotation Xrotation
								End Site
								{
									OFFSET 0.000000 0.000000 0.000000
								}
							}
						}
					}
				}
				JOINT RightShoulder
				{
					OFFSET -0.081759 0.118833 -0.038615
					CHANNELS 3 Zrotation Yrotation Xrotation
					JOINT RightArm
					{
						OFFSET -0.096012 0.032551 -0.009143
						CHANNELS 3 Zrotation Yrotation Xrotation
						JOINT RightForeArm
						{
							OFFSET -0.253742 -0.013329 -0.021401
							CHANNELS 3 Zrotation Yrotation Xrotation
							JOINT RightHand
							{
								OFFSET -0.255298 0.007772 -0.005559
								CHANNELS 3 Zrotation Yrotation Xrotation
								End Site
								{
									OFFSET 0.000000 0.000000 0.000000
								}
							}
						}
					}
				}
			}
		}
	}
}
MOTION
Frames: 11
Frame Time: 0.050000
-0.018722 0.906743 -0.093153 -0.055453 6.525437 10.622595 6.935749 -2.121845 -35.747975 -3.003985 -0.916470 38.568496 1.765255 6.321060 6.107231 0.000000 0.000000 0.000000 -4.040553 1.621605 -32.449751 3.636703 -1.296565 39.879493 -6.744164 -16.847526 0.905698 0.000000 0.000000 0.000000 1.674722 -1.302798 18.085927 -0.853831 0.600559 -6.566033 -4.190245 10.592261 9.042250 9.368897 -3.860480 -12.925908 0.000000 0.000000 0.000000 7.810692 -0.698712 1.880270 13.153950 -18.812622 -2.694953 139.111468 -61.464394 -118.519210 0.000000 0.000000 0.000000 0.244929 -9.924923 -3.789149 12.282979 -1.494120 -1.564462 168.355586 64.653762 178.191874 0.000000 0.000000 0.000000 
-0.017794 0.903664 -0.094299 0.072041 6.244296 10.354052 6.798611 -2.091210 -35.303697 -3.003581 -0.915010 39.225949 1.836255 5.472640 3.501576 0.000000 0.000000 0.000000 -4.398980 1.567329 -33.016695 3.280534 -1.126024 41.400783 -6.027775 -15.112876 0.431811 0.000000 0.000000 0.000000 2.331684 -1.390024 17.672902 -0.515970 0.438595 -5.792660 -4.658454 10.258110 8.902351 9.407631 -4.241077 -11.681474 0.000000 0.000000 0.000000 8.102954 -1.511060 2.118909 10.992913 -17.807121 -2.234609 145.110010 -63.637482 -129.026953 0.000000 0.000000 0.000000 0.561326 -10.066875 -3.844451 10.910994 -2.281968 -1.402895 170.859372 62.872861 -178.541504 0.000000 0.000000 0.000000 
-0.016687 0.901679 -0.094729 0.315379 6.269349 10.239259 6.625187 -2.124585 -35.061940 -3.128394 -0.880411 39.495654 1.770398 4.762948 2.054001 0.000000 0.000000 0.000000 -4.885494 1.435930 -33.326104 3.089476 -1.068683 42.308157 -5.565485 -13.957868 0.111766 0.000000 0.000000 0.000000 2.957562 -1.458363 17.066308 -0.448967 0.390608 -5.182202 -4.575409 9.998312 8.878750 9.442474 -4.434021 -11.115646 0.000000 0.000000 0.000000 8.999168 -1.476752 2.284784 8.764403 -16.823860 -1.841326 149.620979 -63.347042 -135.503148 0.000000 0.000000 0.000000 -0.048534 -10.897001 -4.152232 11.616905 -2.425516 -1.488358 172.142616 62.753686 -176.343251 0.000000 0.000000 0.000000 
-0.015395 0.900850 -0.095250 0.516446 6.245585 9.973843 6.314081 -2.178639 -34.727102 -2.808876 -1.079899 40.273251 1.388187 3.196905 0.310137 0.000000 0.000000 0.000000 -5.834698 1.179282 -33.726531 3.651998 -1.383073 42.792233 -5.168468 -13.143961 1.580194 0.000000 0.000000 0.000000 3.471573 -1.538932 16.910902 -0.018114 0.225164 -5.417878 -4.302944 10.482695 9.132631 9.619663 -4.737582 -10.360072 0.000000 0.000000 0.000000 11.039938 -1.058010 2.636068 6.498341 -17.259361 -1.718108 143.819263 -64.567017 -129.291759 0.000000 0.000000 0.000000 0.800990 -10.900324 -4.186503 12.791650 -2.592155 -1.680532 176.436823 63.646330 -169.008515 0.000000 0.000000 0.000000 
-0.013618 0.898522 -0.096243 0.832852 5.857811 10.058350 6.197016 -2.199932 -35.184525 -3.029417 -0.930124 40.789994 1.122646 2.678386 0.428247 0.000000 0.000000 0.000000 -6.401462 1.072918 -34.317481 3.408587 -1.188902 43.159247 -4.769550 -12.265368 1.953264 0.000000 0.000000 0.000000 3.491527 -1.459145 16.126489 0.581706 -0.032560 -5.185627 -3.579535 11.223943 8.973892 9.353210 -4.821204 -9.212850 0.000000 0.000000 0.000000 12.223346 0.546849 2.585801 5.549983 -19.175932 -1.918289 131.280309 -66.523222 -115.265089 0.000000 0.000000 0.000000 2.601431 -11.247142 -4.368848 15.285772 -0.612593 -1.958788 -173.925110 64.996533 -153.337112 0.000000 0.000000 0.000000 
-0.011017 0.896353 -0.097393 1.075288 6.042548 10.206729 5.221669 -2.478610 -35.112732 -2.789760 -1.121429 41.326572 2.176030 3.845529 -2.066957 0.000000 0.000000 0.000000 -6.591635 0.996798 -34.846681 3.400103 -1.260774 44.105112 -5.262651 -13.348681 1.368229 0.000000 0.000000 0.000000 3.979719 -1.507991 15.616642 0.783482 -0.120483 -5.031423 -2.073913 11.041844 8.937058 8.527104 -4.959692 -6.560796 0.000000 0.000000 0.000000 13.324915 2.362231 2.404091 3.902695 -21.936810 -2.127017 109.201669 -68.858504 -92.212273 0.000000 0.000000 0.000000 4.356652 -11.537009 -4.537570 17.952442 2.459812 -2.067500 -163.229587 65.900320 -137.389092 0.000000 0.000000 0.000000 
-0.007392 0.895712 -0.098392 1.191007 6.134227 10.164513 4.746237 -2.553227 -34.425556 -3.022411 -1.008995 40.847460 2.860391 4.557976 -3.941047 0.000000 0.000000 0.000000 -7.148934 0.823370 -35.085430 3.668414 -1.445323 44.503633 -5.243097 -13.338276 1.741294 0.000000 0.000000 0.000000 4.837580 -1.601641 14.975820 0.928141 -0.181918 -4.976573 -0.727050 12.262955 8.365397 7.453230 -5.076853 -3.026794 0.000000 0.000000 0.000000 12.677135 2.172875 2.417753 3.055449 -25.406301 -2.537419 83.883471 -69.879252 -68.378297 0.000000 0.000000 0.000000 5.956356 -12.374995 -4.918110 23.990814 4.643683 -2.307145 -159.669388 65.627087 -130.436069 0.000000 0.000000 0.000000 
-0.003500 0.897041 -0.099674 1.604637 5.612896 10.072142 3.827210 -2.714854 -34.169714 -3.528339 -0.673920 40.615013 3.866013 7.065543 -3.531003 0.000000 0.000000 0.000000 -7.365150 0.825562 -34.996249 2.383594 -0.633077 44.540578 -4.409696 -11.390161 1.722228 0.000000 0.000000 0.000000 4.928642 -1.536850 14.336510 0.266285 0.049234 -4.166476 0.628692 12.507228 8.228167 6.717317 -4.870715 -1.693789 0.000000 0.000000 0.000000 13.336606 4.048514 2.166792 2.317217 -27.502813 -2.711642 64.477854 -66.780836 -48.762975 0.000000 0.000000 0.000000 6.216296 -13.695247 -5.533469 30.407318 7.462248 -2.059343 -151.217236 66.585127 -118.354591 0.000000 0.000000 0.000000 
-0.000391 0.902017 -0.101032 2.042763 6.271593 9.384516 2.587438 -2.877750 -32.067723 -2.988695 -0.993530 38.943735 3.934685 6.701437 -4.681040 0.000000 0.000000 0.000000 -7.863232 0.598099 -33.684226 1.636197 -0.349133 43.776744 -3.751861 -9.990345 2.730316 0.000000 0.000000 0.000000 5.383053 -1.606749 14.263619 -0.074066 0.246685 -5.332032 0.775092 12.493909 9.330649 6.524685 -4.991219 -0.737023 0.000000 0.000000 0.000000 15.594165 2.912630 2.928811 3.712266 -26.306618 -2.812151 51.807184 -60.845951 -35.383203 0.000000 0.000000 0.000000 6.147915 -13.635897 -5.483563 29.702577 7.098427 -2.252402 -146.270522 66.859637 -111.591726 0.000000 0.000000 0.000000 
0.001215 0.909168 -0.102164 2.497990 6.778040 9.335254 1.795578 -3.001425 -31.105763 -2.525462 -1.222781 37.673055 3.346940 5.497525 -4.178254 0.000000 0.000000 0.000000 -8.604288 0.357201 -32.132249 1.709909 -0.455892 42.030471 -3.345268 -8.937263 2.315055 0.000000 0.000000 0.000000 5.548952 -1.598897 13.862408 -0.624166 0.526674 -6.802122 0.271520 12.633853 10.665060 6.823123 -5.660984 0.603547 0.000000 0.000000 0.000000 17.574075 3.654446 3.291315 7.855531 -23.862708 -3.049320 47.163945 -57.650754 -30.702407 0.000000 0.000000 0.000000 0.133331 -15.018116 -5.887883 25.640661 3.099357 -2.629419 -149.158818 69.715995 -117.347460 0.000000 0.000000 0.000000 
0.001568 0.917564 -0.102160 3.063346 7.978866 9.165888 0.522584 -3.212616 -29.706924 -1.499980 -1.759107 35.999016 2.750481 4.289696 -3.622924 0.000000 0.000000 0.000000 -8.948627 0.173159 -29.962847 0.774805 -0.164274 39.964392 -2.675614 -7.246074 2.053181 0.000000 0.000000 0.000000 5.139526 -1.450670 12.983271 -0.904554 0.663665 -7.013956 -0.512746 11.337854 12.077573 6.617039 -5.934205 1.971786 0.000000 0.000000 0.000000 19.957321 7.245095 3.157747 11.467925 -21.313282 -2.982705 42.317867 -54.438482 -25.979665 0.000000 0.000000 0.000000 -8.173221 -16.330070 -5.902299 18.941681 -0.056502 -2.274444 -156.373913 75.938711 -131.773569 0.000000 0.000000 0.000000 
